<svg xmlns="http://www.w3.org/2000/svg" xmlns:xlink="http://www.w3.org/1999/xlink" width="250" zoomAndPan="magnify" viewBox="0 0 187.5 74.999997" height="100" preserveAspectRatio="xMidYMid meet" version="1.0"><defs><g/></defs><g fill="#ffffff" fill-opacity="1"><g transform="translate(2.843908, 51.26685)"><g><path d="M -0.125 -0.828125 L 0.1875 -1.59375 L 0.4375 -2.40625 L 0.578125 -3.234375 L 0.953125 -4.0625 L 1.015625 -4.890625 L 1.203125 -5.578125 L 1.453125 -6.34375 L 1.59375 -7.171875 L 1.84375 -8.0625 L 2.15625 -8.8125 L 2.28125 -9.640625 L 2.40625 -10.40625 L 2.671875 -11.234375 L 2.921875 -12.0625 L 3.109375 -12.875 L 3.234375 -13.640625 L 3.6875 -14.46875 L 3.75 -15.234375 L 4.0625 -16.1875 L 4.3125 -16.9375 L 4.375 -17.640625 L 4.625 -18.53125 L 4.828125 -19.359375 L 4.953125 -20.046875 L 5.328125 -21 L 5.328125 -21.828125 L 5.703125 -22.65625 L 5.78125 -23.421875 L 5.96875 -24.171875 L 6.34375 -25 L 6.46875 -25.828125 L 6.59375 -26.59375 L 6.921875 -27.34375 L 8.0625 -28.171875 L 8.890625 -28.234375 L 9.828125 -28.234375 L 10.59375 -27.34375 L 10.34375 -26.453125 L 10.15625 -25.765625 L 9.96875 -24.8125 L 9.828125 -24.109375 L 9.765625 -23.09375 L 9.515625 -22.265625 L 9.203125 -21.578125 L 9.015625 -20.75 L 8.8125 -19.859375 L 8.75 -19.09375 L 9.203125 -19.796875 L 9.765625 -20.4375 L 10.03125 -21.25 L 10.59375 -22.015625 L 11.046875 -22.71875 L 11.484375 -23.484375 L 12 -24.046875 L 12.5 -24.875 L 12.9375 -25.4375 L 13.640625 -26.078125 L 14.015625 -26.71875 L 14.84375 -27.34375 L 15.546875 -27.796875 L 16.1875 -28.296875 L 16.875 -28.6875 L 17.640625 -28.9375 L 18.59375 -29.1875 L 20.046875 -29.125 L 20.875 -28.9375 L 21.765625 -28.625 L 22.40625 -28.109375 L 22.90625 -27.609375 L 23.484375 -26.78125 L 23.859375 -26.078125 L 24.046875 -25.3125 L 24.171875 -24.5625 L 24.234375 -23.796875 L 24.421875 -22.078125 L 24.171875 -21.1875 L 24.171875 -20.4375 L 23.09375 -19.546875 L 22.328125 -19.546875 L 21.578125 -19.671875 L 20.75 -19.671875 L 20.171875 -20.3125 L 20.4375 -21.1875 L 20.4375 -22.84375 L 20.234375 -23.546875 L 19.734375 -24.109375 L 19.21875 -24.75 L 18.53125 -25 L 17.125 -25.125 L 16.5 -24.9375 L 15.796875 -24.5625 L 15.421875 -24.046875 L 14.71875 -23.609375 L 13.515625 -22.46875 L 13.140625 -21.828125 L 12.75 -21 L 12.125 -20.3125 L 11.859375 -19.609375 L 11.421875 -18.90625 L 10.78125 -18.28125 L 10.53125 -17.390625 L 10.09375 -16.75 L 9.640625 -15.921875 L 9.265625 -15.234375 L 9.078125 -14.34375 L 8.6875 -13.578125 L 8.375 -12.75 L 8 -12 L 7.609375 -11.171875 L 7.359375 -10.46875 L 7.109375 -9.578125 L 6.65625 -8.8125 L 6.53125 -8.125 L 6.28125 -7.296875 L 5.84375 -6.53125 L 5.578125 -5.640625 L 5.453125 -4.828125 L 5.203125 -4.0625 L 4.828125 -3.171875 L 4.625 -2.40625 L 4.4375 -1.65625 L 4 -0.828125 L 2.921875 -0.0625 L 2.09375 -0.0625 L 1.328125 0.125 L 0.703125 0.125 Z M -0.125 -0.828125 "/></g></g></g><g fill="#ffffff" fill-opacity="1"><g transform="translate(24.100231, 51.26685)"><g><path d="M 11.671875 0.890625 L 10.78125 0.828125 L 10.09375 0.765625 L 9.328125 0.375 L 8.5625 0.1875 L 7.8125 -0.25 L 7.046875 -0.703125 L 6.46875 -1.203125 L 5.84375 -1.90625 L 5.328125 -2.46875 L 4.828125 -3.171875 L 4.5 -3.875 L 4.125 -4.5625 L 3.75 -5.453125 L 3.546875 -6.15625 L 3.296875 -6.921875 L 3.359375 -7.875 L 3.234375 -8.5625 L 3.046875 -9.390625 L 2.984375 -11.234375 L 3.171875 -11.921875 L 3.296875 -12.8125 L 3.234375 -13.703125 L 3.484375 -14.34375 L 3.6875 -15.234375 L 3.75 -16.109375 L 3.9375 -16.75 L 4.1875 -17.703125 L 4.5 -18.46875 L 4.828125 -19.15625 L 5.140625 -19.984375 L 5.453125 -20.625 L 5.96875 -21.453125 L 6.796875 -22.71875 L 7.296875 -23.546875 L 7.8125 -24.171875 L 8.25 -24.75 L 8.8125 -25.3125 L 9.578125 -25.828125 L 10.65625 -26.96875 L 11.421875 -27.40625 L 12.25 -27.734375 L 12.9375 -28.171875 L 13.640625 -28.484375 L 14.40625 -28.625 L 15.109375 -28.9375 L 15.984375 -29.0625 L 18.59375 -29.125 L 19.21875 -29.0625 L 20.046875 -28.75 L 20.9375 -28.484375 L 21.515625 -28.046875 L 22.265625 -27.734375 L 22.84375 -27.15625 L 23.34375 -26.515625 L 23.984375 -26.015625 L 24.359375 -25.25 L 24.8125 -24.5 L 25 -23.796875 L 25.375 -23.03125 L 25.578125 -22.203125 L 25.703125 -21.3125 L 26.203125 -22.078125 L 26.515625 -22.96875 L 26.65625 -23.671875 L 27.09375 -24.5 L 27.28125 -25.25 L 27.609375 -25.953125 L 28.046875 -26.65625 L 28.296875 -27.53125 L 29.625 -28.171875 L 31.28125 -28.171875 L 31.859375 -27.40625 L 31.40625 -26.65625 L 31.28125 -25.890625 L 31.03125 -25.0625 L 30.71875 -24.234375 L 30.328125 -23.546875 L 30.265625 -22.78125 L 29.953125 -21.953125 L 29.625 -21.0625 L 29.375 -20.375 L 29.0625 -19.671875 L 28.75 -18.78125 L 28.6875 -17.953125 L 28.234375 -17.125 L 28.171875 -16.5 L 27.734375 -15.671875 L 27.46875 -14.90625 L 27.40625 -14.09375 L 27.15625 -13.203125 L 26.78125 -12.375 L 26.65625 -11.671875 L 26.390625 -10.78125 L 26.265625 -10.03125 L 26.078125 -9.203125 L 25.703125 -8.375 L 25.578125 -7.546875 L 25.515625 -6.859375 L 25.515625 -6.03125 L 25.578125 -4.4375 L 25.890625 -3.546875 L 26.453125 -3.171875 L 28.046875 -3.046875 L 28.75 -3.171875 L 29.703125 -3.546875 L 30.265625 -4 L 31.03125 -4.4375 L 31.65625 -5.078125 L 32.234375 -5.703125 L 32.609375 -6.28125 L 33.3125 -6.984375 L 33.6875 -7.546875 L 34.390625 -8.25 L 34.765625 -9.078125 L 35.34375 -9.765625 L 35.84375 -10.53125 L 36.234375 -11.171875 L 36.546875 -11.921875 L 36.9375 -12.6875 L 37.375 -13.453125 L 37.9375 -14.15625 L 39.09375 -14.53125 L 39.65625 -14.015625 L 39.90625 -12.625 L 39.65625 -12 L 39.03125 -11.171875 L 38.828125 -10.53125 L 38.203125 -9.703125 L 37.8125 -9.140625 L 37.3125 -8.3125 L 36.9375 -7.734375 L 36.421875 -6.921875 L 35.921875 -6.21875 L 35.46875 -5.640625 L 34.96875 -4.890625 L 34.390625 -4.25 L 33.953125 -3.6875 L 33.4375 -3.046875 L 32.9375 -2.40625 L 32.171875 -1.71875 L 31.59375 -1.203125 L 30.90625 -0.765625 L 30.328125 -0.25 L 29.625 0.0625 L 28.75 0.4375 L 28.109375 0.765625 L 27.15625 0.890625 L 25.515625 0.890625 L 24.5625 0.765625 L 23.734375 0.4375 L 23.03125 -0.0625 L 22.53125 -0.765625 L 22.078125 -1.453125 L 21.765625 -2.15625 L 21.515625 -2.984375 L 21.453125 -3.9375 L 20.875 -3.359375 L 20.3125 -2.734375 L 19.734375 -2.15625 L 19.21875 -1.59375 L 18.46875 -1.015625 L 17.890625 -0.578125 L 16.3125 0.1875 L 14.84375 0.640625 L 14.15625 0.765625 L 13.328125 1.015625 Z M 14.09375 -2.921875 L 14.78125 -3.234375 L 15.609375 -3.359375 L 16.3125 -3.75 L 17 -4.125 L 17.578125 -4.4375 L 18.21875 -5.015625 L 18.78125 -5.515625 L 19.984375 -6.796875 L 20.5 -7.546875 L 20.875 -8.125 L 21.1875 -8.953125 L 21.640625 -9.640625 L 22.078125 -10.34375 L 22.203125 -11.171875 L 22.53125 -11.859375 L 22.84375 -12.75 L 22.78125 -13.578125 L 23.15625 -14.40625 L 23.21875 -15.109375 L 23.34375 -15.921875 L 23.21875 -16.75 L 23.21875 -18.46875 L 23.28125 -19.21875 L 23.03125 -19.984375 L 22.96875 -20.9375 L 22.65625 -21.640625 L 22.265625 -22.328125 L 21.765625 -23.03125 L 21.25 -23.671875 L 20.5625 -24.234375 L 19.984375 -24.5625 L 19.21875 -24.875 L 18.34375 -25.1875 L 16.625 -25.125 L 15.921875 -24.9375 L 15.171875 -24.625 L 14.40625 -24.296875 L 13.515625 -24.046875 L 13.078125 -23.546875 L 12.3125 -23.03125 L 11.796875 -22.40625 L 11.234375 -21.828125 L 10.53125 -21.1875 L 10.09375 -20.5 L 9.765625 -19.734375 L 9.203125 -18.90625 L 9.015625 -18.21875 L 8.5625 -17.328125 L 8.375 -16.6875 L 8.125 -15.734375 L 7.875 -14.96875 L 7.734375 -14.15625 L 7.609375 -13.265625 L 7.546875 -12.4375 L 7.421875 -11.671875 L 7.421875 -9.015625 L 7.546875 -8.3125 L 7.8125 -7.484375 L 8.1875 -6.59375 L 8.5625 -5.84375 L 8.953125 -5.078125 L 9.390625 -4.4375 L 10.15625 -3.9375 L 10.71875 -3.609375 L 11.546875 -3.171875 L 12.4375 -2.984375 Z M 14.09375 -2.921875 "/></g></g></g><g fill="#ffffff" fill-opacity="1"><g transform="translate(58.173895, 51.26685)"><g><path d="M 21.828125 0.953125 L 20.9375 0.765625 L 19.484375 0.0625 L 18.84375 -0.578125 L 18.46875 -1.140625 L 18.140625 -1.78125 L 17.828125 -2.53125 L 17.640625 -3.421875 L 17.640625 -5.015625 L 17.703125 -5.78125 L 17.890625 -6.59375 L 18.078125 -7.359375 L 18.28125 -8.25 L 18.71875 -9.015625 L 18.84375 -9.703125 L 19.15625 -10.40625 L 19.359375 -11.171875 L 19.734375 -11.921875 L 20.109375 -12.6875 L 20.5 -13.453125 L 20.8125 -14.15625 L 21.125 -14.90625 L 21.25 -15.671875 L 21.640625 -16.4375 L 21.890625 -17.203125 L 22.140625 -18.015625 L 22.328125 -18.71875 L 22.71875 -19.484375 L 22.71875 -20.234375 L 22.84375 -21.125 L 22.96875 -22.78125 L 22.65625 -23.546875 L 22.203125 -24.171875 L 21.578125 -24.75 L 20.5625 -25 L 19.15625 -25.1875 L 18.40625 -24.875 L 16.875 -24.421875 L 16.3125 -23.921875 L 15.796875 -23.421875 L 15.171875 -22.90625 L 14.59375 -22.40625 L 14.015625 -21.703125 L 13.453125 -21.1875 L 13.015625 -20.5 L 12.3125 -19.921875 L 11.921875 -19.15625 L 11.421875 -18.53125 L 10.984375 -17.828125 L 10.65625 -17 L 10.09375 -16.375 L 9.640625 -15.546875 L 9.265625 -14.90625 L 8.8125 -14.09375 L 8.5625 -13.328125 L 8.125 -12.5 L 7.8125 -11.734375 L 7.484375 -10.984375 L 7.171875 -10.21875 L 6.59375 -9.515625 L 6.40625 -8.625 L 6.15625 -7.9375 L 5.78125 -7.046875 L 5.453125 -6.34375 L 5.140625 -5.578125 L 4.703125 -4.765625 L 4.5625 -3.9375 L 4.1875 -3.109375 L 3.9375 -2.40625 L 3.6875 -1.515625 L 3.421875 -0.703125 L 2.21875 -0.0625 L 0.640625 -0.0625 L -0.1875 0.125 L -0.703125 -0.703125 L -0.578125 -1.453125 L -0.25 -2.40625 L 0.1875 -3.8125 L 0.25 -4.625 L 0.703125 -5.515625 L 0.953125 -6.15625 L 1.078125 -7.109375 L 1.390625 -7.8125 L 1.65625 -8.5 L 1.65625 -9.390625 L 2.03125 -10.15625 L 2.15625 -10.90625 L 2.40625 -11.671875 L 2.734375 -12.5625 L 2.984375 -13.328125 L 3.296875 -14.15625 L 3.296875 -14.90625 L 3.6875 -15.734375 L 4 -16.375 L 4 -17.203125 L 4.4375 -18.015625 L 4.703125 -18.78125 L 4.765625 -19.609375 L 5.015625 -20.375 L 5.265625 -21.1875 L 5.578125 -22.015625 L 5.84375 -22.71875 L 5.90625 -23.421875 L 6.28125 -24.359375 L 6.46875 -25.125 L 6.796875 -25.765625 L 6.984375 -26.65625 L 7.109375 -27.40625 L 8.375 -28.296875 L 9.328125 -28.296875 L 10.09375 -28.171875 L 10.71875 -27.46875 L 10.65625 -26.65625 L 10.46875 -25.828125 L 10.09375 -24.875 L 9.828125 -24.109375 L 9.390625 -22.46875 L 9.265625 -21.640625 L 8.953125 -20.8125 L 8.953125 -19.984375 L 8.5625 -19.21875 L 8.4375 -18.34375 L 8.890625 -18.96875 L 9.328125 -19.796875 L 9.90625 -20.5 L 10.40625 -21.1875 L 10.84375 -21.828125 L 11.359375 -22.40625 L 11.796875 -23.09375 L 12.25 -23.859375 L 12.9375 -24.359375 L 13.515625 -25 L 13.953125 -25.703125 L 14.59375 -26.203125 L 15.296875 -26.71875 L 15.859375 -27.15625 L 16.625 -27.609375 L 17.203125 -28.046875 L 18.078125 -28.484375 L 18.78125 -28.8125 L 19.484375 -29.0625 L 20.3125 -29.0625 L 22.140625 -29.125 L 22.84375 -29 L 23.734375 -28.6875 L 24.359375 -28.421875 L 25.125 -27.859375 L 25.828125 -27.40625 L 26.265625 -26.78125 L 26.59375 -25.953125 L 27.03125 -25.25 L 27.28125 -24.5 L 27.34375 -23.671875 L 27.40625 -22.015625 L 27.28125 -21.125 L 27.15625 -20.4375 L 26.96875 -19.546875 L 26.84375 -18.84375 L 26.390625 -18.015625 L 26.203125 -17.328125 L 25.890625 -16.4375 L 25.578125 -15.734375 L 25.4375 -14.96875 L 25.1875 -14.09375 L 24.75 -13.515625 L 24.296875 -12.6875 L 24.046875 -12 L 23.671875 -11.171875 L 23.546875 -10.40625 L 23.09375 -9.703125 L 22.90625 -8.953125 L 22.46875 -8.125 L 22.328125 -7.421875 L 22.015625 -6.59375 L 22.078125 -5.84375 L 22.078125 -4.25 L 22.46875 -3.484375 L 23.03125 -3.171875 L 24.359375 -2.984375 L 25.3125 -3.171875 L 26.078125 -3.546875 L 26.71875 -3.9375 L 27.28125 -4.5625 L 28.421875 -5.578125 L 29.703125 -6.859375 L 30.140625 -7.609375 L 30.640625 -8.1875 L 31.34375 -8.953125 L 31.734375 -9.703125 L 32.234375 -10.34375 L 32.671875 -11.109375 L 33 -11.921875 L 33.625 -12.625 L 34.078125 -13.453125 L 34.390625 -14.15625 L 35.59375 -14.34375 L 36.234375 -13.953125 L 36.609375 -12.625 L 36.171875 -12 L 35.65625 -11.234375 L 35.28125 -10.65625 L 34.828125 -9.96875 L 34.328125 -9.140625 L 33.890625 -8.5 L 33.5625 -7.875 L 33.1875 -7.171875 L 32.609375 -6.46875 L 32.109375 -5.84375 L 31.796875 -5.140625 L 31.21875 -4.5625 L 30.640625 -3.8125 L 30.203125 -3.234375 L 29.5 -2.609375 L 28.9375 -2.03125 L 28.296875 -1.453125 L 27.734375 -1.015625 L 27.03125 -0.4375 L 26.390625 -0.125 L 25.640625 0.25 L 24.234375 0.765625 L 23.484375 1.015625 Z M 21.828125 0.953125 "/></g></g></g><g fill="#ffffff" fill-opacity="1"><g transform="translate(88.50389, 51.26685)"><g><path d="M 18.84375 0.890625 L 17.890625 0.765625 L 17.125 0.5 L 16.5625 0.0625 L 15.984375 -0.4375 L 15.484375 -0.890625 L 14.96875 -1.59375 L 14.53125 -2.40625 L 14.15625 -3.109375 L 13.953125 -3.875 L 13.578125 -4.765625 L 13.390625 -5.515625 L 13.390625 -6.34375 L 13.078125 -7.296875 L 13.015625 -8.125 L 13.015625 -9.015625 L 12.75 -9.90625 L 12.6875 -10.71875 L 12.5625 -11.484375 L 12.5625 -12.375 L 11.671875 -13.140625 L 10.90625 -13.015625 L 10.21875 -12.875 L 9.328125 -12.8125 L 8.3125 -12.6875 L 7.484375 -12.6875 L 6.40625 -11.921875 L 6.21875 -11.109375 L 5.96875 -10.28125 L 5.78125 -9.453125 L 5.453125 -8.6875 L 5.265625 -8 L 5.015625 -7.046875 L 4.953125 -6.28125 L 4.5 -5.515625 L 4.25 -4.765625 L 4.1875 -4 L 3.875 -3.171875 L 3.6875 -2.28125 L 3.359375 -1.59375 L 3.046875 -0.828125 L 2.03125 -0.0625 L -0.5 -0.0625 L -0.890625 -0.703125 L -0.640625 -1.59375 L -0.578125 -2.34375 L -0.375 -3.046875 L 0.0625 -3.9375 L 0.3125 -4.765625 L 0.375 -5.515625 L 0.640625 -6.28125 L 0.828125 -7.109375 L 1.140625 -7.8125 L 1.390625 -8.75 L 1.78125 -9.390625 L 1.90625 -10.34375 L 2.09375 -11.109375 L 2.28125 -11.796875 L 2.671875 -12.625 L 2.921875 -13.390625 L 3.109375 -14.28125 L 3.359375 -15.109375 L 3.75 -16.5625 L 4.375 -18.140625 L 4.625 -18.96875 L 4.703125 -19.796875 L 5.015625 -20.625 L 5.265625 -21.390625 L 5.578125 -22.203125 L 5.90625 -22.90625 L 5.96875 -23.671875 L 6.28125 -24.5 L 6.46875 -25.25 L 7.109375 -26.84375 L 7.234375 -27.609375 L 7.546875 -28.421875 L 7.8125 -29.1875 L 7.9375 -30.078125 L 8.3125 -30.84375 L 8.5 -31.65625 L 8.6875 -32.484375 L 9.015625 -33.1875 L 9.140625 -34.015625 L 9.328125 -34.90625 L 9.640625 -35.65625 L 9.765625 -36.484375 L 10.15625 -37.1875 L 10.34375 -37.9375 L 10.71875 -38.828125 L 10.984375 -39.59375 L 11.046875 -40.296875 L 11.421875 -41.1875 L 11.609375 -42 L 11.921875 -42.703125 L 12.125 -43.46875 L 12.375 -44.359375 L 12.4375 -45.109375 L 13.640625 -46 L 15.234375 -46 L 16.109375 -45.9375 L 16.5625 -45.109375 L 16.3125 -44.234375 L 16.109375 -43.53125 L 15.546875 -41.046875 L 15.234375 -40.359375 L 15.03125 -39.59375 L 14.65625 -38.765625 L 14.53125 -37.875 L 14.15625 -37.25 L 13.890625 -36.421875 L 13.765625 -35.59375 L 13.515625 -34.828125 L 13.203125 -33.890625 L 12.9375 -33.125 L 12.6875 -32.421875 L 12.5 -31.59375 L 12.375 -30.84375 L 12.0625 -30.078125 L 11.796875 -29.125 L 11.671875 -28.359375 L 11.234375 -27.609375 L 11.171875 -26.78125 L 10.84375 -26.015625 L 10.53125 -25.1875 L 10.34375 -24.421875 L 10.03125 -23.609375 L 9.515625 -22.015625 L 9.453125 -21.25 L 9.015625 -20.4375 L 8.953125 -19.609375 L 8.6875 -18.84375 L 8.4375 -18.015625 L 8.0625 -17.328125 L 8.6875 -16.4375 L 9.578125 -16.5625 L 10.34375 -16.5625 L 11.234375 -16.6875 L 12.0625 -16.8125 L 12.6875 -17 L 13.578125 -17.328125 L 14.21875 -17.703125 L 15.03125 -17.953125 L 15.796875 -18.34375 L 16.4375 -18.84375 L 17.0625 -19.21875 L 17.640625 -19.859375 L 18.28125 -20.5 L 18.78125 -20.9375 L 19.359375 -21.703125 L 19.734375 -22.265625 L 20.109375 -22.90625 L 20.5625 -23.671875 L 21 -24.421875 L 21.125 -25.25 L 21.515625 -25.953125 L 21.765625 -26.65625 L 22.140625 -27.40625 L 23.09375 -28.296875 L 23.859375 -28.234375 L 25.578125 -28.234375 L 26.203125 -27.46875 L 25.828125 -26.59375 L 25.640625 -25.890625 L 25.375 -25.0625 L 24.9375 -24.296875 L 24.625 -23.484375 L 24.109375 -22.78125 L 23.671875 -22.015625 L 23.484375 -21.3125 L 23.03125 -20.625 L 22.46875 -19.984375 L 22.015625 -19.359375 L 21.515625 -18.78125 L 20.75 -18.015625 L 20.234375 -17.453125 L 19.734375 -17 L 19.03125 -16.4375 L 18.40625 -15.921875 L 17.640625 -15.546875 L 17.0625 -14.96875 L 16.3125 -13.703125 L 16.3125 -12.9375 L 16.4375 -12.1875 L 16.4375 -11.359375 L 16.5625 -10.53125 L 16.625 -9.578125 L 16.625 -8.75 L 16.875 -7.9375 L 17.0625 -7.109375 L 17.265625 -6.40625 L 17.453125 -5.578125 L 17.578125 -4.828125 L 18.078125 -3.9375 L 18.78125 -3.421875 L 19.359375 -2.984375 L 20.875 -3.109375 L 21.703125 -3.296875 L 22.40625 -3.484375 L 23.09375 -3.9375 L 23.796875 -4.375 L 24.5625 -4.953125 L 25.125 -5.390625 L 25.578125 -6.03125 L 26.140625 -6.65625 L 26.71875 -7.359375 L 27.34375 -7.9375 L 27.796875 -8.625 L 28.171875 -9.328125 L 28.6875 -10.03125 L 29.1875 -10.59375 L 29.4375 -11.296875 L 29.890625 -12.125 L 30.453125 -12.8125 L 30.78125 -13.390625 L 31.21875 -14.09375 L 32.421875 -14.34375 L 33.125 -13.890625 L 33.3125 -12.625 L 32.875 -12 L 32.484375 -11.171875 L 31.984375 -10.53125 L 31.53125 -9.828125 L 31.21875 -9.015625 L 30.78125 -8.4375 L 30.265625 -7.609375 L 29.703125 -6.921875 L 29.375 -6.21875 L 28.75 -5.578125 L 28.234375 -5.015625 L 27.671875 -4.3125 L 27.15625 -3.546875 L 26.78125 -3.046875 L 26.140625 -2.40625 L 25.578125 -1.78125 L 24.875 -1.328125 L 24.109375 -0.703125 L 23.421875 -0.1875 L 22.84375 0.0625 L 21.953125 0.5 L 21.125 0.703125 L 20.5 0.890625 Z M 18.84375 0.890625 "/></g></g></g><g fill="#ffffff" fill-opacity="1"><g transform="translate(116.105464, 51.26685)"><g><path d="M 20.875 -46.890625 L 21.828125 -46.703125 L 22.71875 -46.390625 L 23.484375 -46.1875 L 24.75 -45.046875 L 25.25 -44.421875 L 25.640625 -43.78125 L 25.953125 -42.828125 L 26.140625 -42 L 26.390625 -41.25 L 26.390625 -39.59375 L 26.203125 -38.890625 L 26.140625 -38.078125 L 25.125 -37.3125 L 24.421875 -37.25 L 23.546875 -37.375 L 22.90625 -37.25 L 22.203125 -38.140625 L 22.40625 -39.03125 L 22.328125 -40.796875 L 22.140625 -41.5 L 21.765625 -42.265625 L 21 -42.765625 L 20.375 -43.015625 L 18.84375 -43.015625 L 18.140625 -42.828125 L 17.453125 -42.453125 L 16.9375 -42.0625 L 16.5 -41.5 L 15.984375 -40.984375 L 15.484375 -40.359375 L 15.171875 -39.65625 L 14.84375 -38.828125 L 14.40625 -38.015625 L 14.15625 -37.3125 L 13.703125 -36.546875 L 13.328125 -35.59375 L 13.140625 -34.90625 L 12.8125 -33.953125 L 12.4375 -33.1875 L 12.375 -32.421875 L 12.0625 -31.46875 L 11.796875 -30.78125 L 11.609375 -29.828125 L 11.171875 -29.0625 L 11.796875 -28.234375 L 14.09375 -28.234375 L 14.90625 -28.296875 L 15.859375 -28.234375 L 18.28125 -28.234375 L 18.84375 -28.296875 L 19.484375 -27.34375 L 19.21875 -26.453125 L 19.03125 -25.703125 L 17.765625 -24.75 L 16.8125 -24.875 L 16.046875 -24.75 L 15.296875 -24.8125 L 14.46875 -24.875 L 12.6875 -24.875 L 11.796875 -24.75 L 10.84375 -24.8125 L 9.90625 -23.921875 L 9.703125 -23.09375 L 9.390625 -22.40625 L 9.078125 -21.578125 L 8.890625 -20.75 L 8.625 -20.046875 L 8.4375 -19.09375 L 8.25 -18.34375 L 8.0625 -17.578125 L 7.9375 -16.875 L 7.609375 -16.046875 L 7.484375 -15.234375 L 7.234375 -14.40625 L 6.984375 -13.640625 L 6.59375 -12.8125 L 6.46875 -11.921875 L 6.21875 -11.234375 L 6.15625 -10.34375 L 5.90625 -9.578125 L 5.515625 -8.75 L 5.390625 -8 L 5.078125 -7.109375 L 4.953125 -6.40625 L 4.765625 -5.578125 L 4.4375 -4.703125 L 4.375 -4 L 4 -3.171875 L 3.8125 -2.28125 L 3.6875 -1.515625 L 3.234375 -0.765625 L 2.21875 0.0625 L 1.515625 0.125 L 0.765625 0.125 L -0.1875 0.0625 L -0.828125 -0.828125 L -0.5 -1.59375 L -0.3125 -2.34375 L 0 -3.234375 L 0.125 -3.9375 L 0.3125 -4.828125 L 0.578125 -5.515625 L 0.828125 -6.28125 L 1.140625 -7.171875 L 1.265625 -7.9375 L 1.453125 -8.6875 L 1.65625 -9.640625 L 2.09375 -10.34375 L 2.21875 -11.234375 L 2.34375 -12.0625 L 2.671875 -12.6875 L 2.921875 -13.515625 L 3.046875 -14.34375 L 3.296875 -15.109375 L 3.609375 -15.984375 L 3.875 -16.8125 L 4.0625 -17.578125 L 4.125 -18.40625 L 4.5625 -19.15625 L 4.625 -19.921875 L 4.890625 -20.8125 L 5.265625 -21.515625 L 5.328125 -22.46875 L 5.78125 -24.046875 L 5.328125 -24.75 L 4.375 -24.8125 L 3.75 -24.875 L 2.734375 -24.75 L 1.96875 -24.8125 L 1.65625 -25.703125 L 1.71875 -26.515625 L 2.15625 -27.40625 L 3.046875 -28.171875 L 3.9375 -28.234375 L 4.625 -28.296875 L 5.578125 -28.171875 L 6.28125 -28.296875 L 7.234375 -28.421875 L 7.421875 -29.25 L 7.484375 -30.078125 L 7.875 -30.96875 L 8 -31.734375 L 8.25 -32.609375 L 8.5 -33.25 L 8.890625 -34.203125 L 9.015625 -34.828125 L 9.328125 -35.71875 L 9.578125 -36.546875 L 9.90625 -37.3125 L 10.15625 -38.015625 L 10.59375 -38.828125 L 10.84375 -39.59375 L 11.359375 -40.296875 L 11.671875 -41.046875 L 12.0625 -41.9375 L 12.625 -42.515625 L 13.078125 -43.34375 L 13.640625 -43.96875 L 14.015625 -44.609375 L 14.78125 -45.046875 L 15.546875 -45.625 L 16.109375 -46 L 16.875 -46.328125 L 17.578125 -46.640625 L 18.46875 -46.703125 L 19.21875 -46.890625 Z M 20.875 -46.890625 "/></g></g></g><g fill="#ffffff" fill-opacity="1"><g transform="translate(133.808568, 51.26685)"><g><path d="M 9.265625 -34.078125 L 9.453125 -34.96875 L 9.765625 -35.78125 L 10.09375 -36.609375 L 10.40625 -37.3125 L 10.59375 -38.203125 L 10.984375 -39.09375 L 12.0625 -40.03125 L 13.828125 -40.03125 L 14.71875 -40.171875 L 15.234375 -39.40625 L 14.96875 -38.640625 L 14.90625 -38.015625 L 14.46875 -37.125 L 14.21875 -36.359375 L 14.015625 -35.53125 L 13.890625 -34.765625 L 13.578125 -33.953125 L 12.4375 -33.25 L 10.84375 -33.25 L 9.765625 -33.1875 Z M 6.53125 0.953125 L 5.640625 0.703125 L 4.953125 0.578125 L 4.375 0.125 L 2.984375 -0.890625 L 2.671875 -1.453125 L 2.21875 -2.28125 L 1.96875 -2.984375 L 1.71875 -3.8125 L 1.453125 -4.703125 L 1.390625 -6.03125 L 1.515625 -6.796875 L 1.65625 -7.484375 L 1.71875 -8.3125 L 2.03125 -9.078125 L 2.03125 -9.90625 L 2.28125 -10.59375 L 2.34375 -11.359375 L 2.53125 -12.125 L 2.796875 -12.9375 L 2.921875 -13.765625 L 3.359375 -14.65625 L 3.546875 -15.359375 L 3.75 -16.109375 L 3.875 -17.0625 L 4.25 -17.828125 L 4.4375 -18.59375 L 4.703125 -19.296875 L 5.015625 -20.171875 L 5.203125 -20.9375 L 5.328125 -21.703125 L 5.578125 -22.59375 L 5.84375 -23.34375 L 6.15625 -24.109375 L 6.53125 -25 L 6.71875 -25.765625 L 6.921875 -26.65625 L 7.296875 -27.40625 L 8.375 -28.171875 L 10.15625 -28.296875 L 10.984375 -28.296875 L 11.671875 -27.40625 L 11.234375 -26.71875 L 11.109375 -25.953125 L 10.84375 -25.1875 L 10.46875 -24.421875 L 10.40625 -23.546875 L 10.03125 -22.78125 L 9.90625 -21.953125 L 9.640625 -21.3125 L 9.203125 -20.5 L 9.203125 -19.671875 L 8.8125 -18.90625 L 8.625 -18.21875 L 8.375 -17.390625 L 8.125 -16.5 L 8 -15.796875 L 7.734375 -14.96875 L 7.546875 -14.28125 L 7.234375 -13.453125 L 6.984375 -12.75 L 6.859375 -11.921875 L 6.71875 -11.109375 L 6.40625 -10.21875 L 6.21875 -9.578125 L 6.15625 -8.625 L 6.09375 -7.9375 L 5.84375 -7.171875 L 5.84375 -5.578125 L 6.15625 -4.765625 L 6.46875 -4.125 L 7.046875 -3.484375 L 7.9375 -3.171875 L 9.328125 -2.984375 L 10.03125 -3.171875 L 10.78125 -3.546875 L 11.609375 -3.875 L 12.1875 -4.3125 L 12.75 -4.953125 L 13.578125 -5.453125 L 14.15625 -6.03125 L 14.59375 -6.53125 L 15.109375 -7.171875 L 15.609375 -7.875 L 16.109375 -8.625 L 16.5 -9.328125 L 16.9375 -9.90625 L 17.515625 -10.53125 L 17.828125 -11.296875 L 18.28125 -11.921875 L 18.78125 -12.8125 L 19.21875 -13.453125 L 19.546875 -14.21875 L 20.6875 -14.46875 L 21.515625 -13.953125 L 21.578125 -12.75 L 21.1875 -12.0625 L 20.9375 -11.234375 L 20.5 -10.59375 L 19.921875 -9.90625 L 19.546875 -9.203125 L 19.15625 -8.5 L 18.78125 -7.671875 L 18.21875 -7.046875 L 17.640625 -6.34375 L 17.328125 -5.78125 L 16.8125 -5.140625 L 16.109375 -4.375 L 15.734375 -3.875 L 15.109375 -3.234375 L 14.53125 -2.46875 L 14.09375 -2.03125 L 13.328125 -1.453125 L 12.6875 -1.015625 L 12 -0.375 L 11.421875 -0.0625 L 10.53125 0.3125 L 9.90625 0.5 L 9.015625 0.828125 L 8.125 1.015625 Z M 6.53125 0.953125 "/></g></g></g><g fill="#ffffff" fill-opacity="1"><g transform="translate(149.036997, 51.26685)"><g><path d="M 37.125 -12.625 L 36.859375 -12 L 36.234375 -11.359375 L 35.921875 -10.65625 L 35.46875 -9.828125 L 34.96875 -9.265625 L 34.578125 -8.5 L 34.140625 -7.734375 L 33.75 -7.234375 L 33.125 -6.46875 L 32.734375 -5.78125 L 32.296875 -5.140625 L 31.734375 -4.5625 L 31.15625 -3.9375 L 30.578125 -3.296875 L 29.953125 -2.609375 L 29.375 -2.15625 L 28.8125 -1.515625 L 28.421875 -0.890625 L 27.671875 -0.375 L 27.15625 0.0625 L 26.328125 0.578125 L 25.828125 1.015625 L 24.9375 1.59375 L 24.359375 1.90625 L 23.609375 2.34375 L 22.78125 2.734375 L 22.203125 3.109375 L 21.390625 3.359375 L 20.5 3.75 L 19.671875 4.765625 L 19.15625 5.515625 L 18.84375 6.28125 L 18.59375 7.171875 L 18.28125 7.875 L 18.015625 8.625 L 17.765625 9.515625 L 17.265625 10.15625 L 16.9375 10.984375 L 16.5 11.734375 L 16.046875 12.5 L 15.671875 13.140625 L 15.109375 13.765625 L 14.71875 14.46875 L 14.21875 15.109375 L 13.515625 15.734375 L 12.875 16.375 L 12.4375 17 L 11.671875 17.453125 L 10.984375 17.765625 L 10.28125 18.140625 L 9.390625 18.34375 L 8.625 18.59375 L 6.03125 18.71875 L 5.203125 18.65625 L 4.3125 18.40625 L 3.6875 18.078125 L 2.859375 17.765625 L 2.28125 17.125 L 1.71875 16.5625 L 1.140625 15.796875 L 0.765625 15.109375 L 0.5 14.34375 L 0.4375 13.390625 L 0.3125 11.796875 L 0.5 11.046875 L 0.640625 10.28125 L 0.828125 9.515625 L 1.203125 8.75 L 1.65625 8.25 L 2.15625 7.546875 L 2.734375 7.046875 L 3.234375 6.59375 L 4.0625 6.09375 L 4.703125 5.703125 L 5.328125 5.328125 L 6.921875 4.625 L 7.734375 4.25 L 8.375 4.0625 L 9.203125 3.6875 L 9.96875 3.484375 L 10.78125 3.359375 L 11.609375 3.171875 L 12.3125 2.984375 L 13.265625 2.734375 L 14.09375 2.53125 L 14.71875 2.40625 L 15.734375 2.09375 L 16.8125 1.265625 L 17 0.578125 L 17.265625 -0.125 L 17.515625 -0.890625 L 17.828125 -2.34375 L 18.140625 -3.171875 L 18.21875 -3.9375 L 18.53125 -4.703125 L 18.78125 -5.515625 L 18.90625 -6.21875 L 19.296875 -7.109375 L 19.421875 -7.875 L 19.546875 -8.5625 L 19.15625 -7.8125 L 18.65625 -7.171875 L 18.078125 -6.46875 L 17.640625 -5.78125 L 17.203125 -5.203125 L 16.5625 -4.5625 L 15.859375 -3.9375 L 15.234375 -3.484375 L 14.78125 -2.921875 L 13.953125 -2.40625 L 13.203125 -1.96875 L 12.6875 -1.453125 L 11.921875 -1.203125 L 11.046875 -0.890625 L 10.34375 -0.640625 L 9.390625 -0.578125 L 7.671875 -0.5 L 6.921875 -0.640625 L 6.15625 -0.890625 L 5.515625 -1.140625 L 4.890625 -1.453125 L 4.1875 -1.96875 L 3.484375 -2.609375 L 3.171875 -3.234375 L 2.796875 -3.875 L 2.34375 -4.765625 L 2.15625 -5.390625 L 2.21875 -6.34375 L 2.09375 -7.734375 L 2.09375 -8.5625 L 2.34375 -9.328125 L 2.46875 -10.15625 L 2.609375 -10.90625 L 2.671875 -11.671875 L 2.921875 -12.5625 L 3.046875 -13.328125 L 3.171875 -14.015625 L 3.359375 -14.96875 L 3.6875 -15.671875 L 3.75 -16.4375 L 4 -17.328125 L 4.1875 -18.078125 L 4.625 -18.84375 L 4.625 -19.546875 L 4.890625 -20.375 L 5.328125 -21.25 L 5.453125 -22.015625 L 5.703125 -22.65625 L 6.09375 -23.546875 L 6.21875 -24.234375 L 6.46875 -25.125 L 6.71875 -25.828125 L 7.046875 -26.71875 L 7.109375 -27.34375 L 8.375 -28.234375 L 9.078125 -28.296875 L 10.09375 -28.296875 L 10.78125 -28.234375 L 11.421875 -27.34375 L 11.171875 -26.59375 L 11.109375 -25.828125 L 10.78125 -25.0625 L 10.53125 -24.234375 L 10.21875 -23.609375 L 9.96875 -22.78125 L 9.828125 -21.953125 L 9.640625 -21.25 L 9.265625 -20.5 L 9.078125 -19.671875 L 8.953125 -18.84375 L 8.75 -18.015625 L 8.3125 -17.390625 L 8.125 -16.5625 L 7.875 -15.734375 L 7.671875 -15.03125 L 7.671875 -14.21875 L 7.296875 -13.390625 L 7.171875 -12.625 L 7.109375 -11.859375 L 6.796875 -11.109375 L 6.71875 -10.28125 L 6.53125 -9.453125 L 6.53125 -8.625 L 6.59375 -7.046875 L 6.796875 -6.40625 L 7.109375 -5.640625 L 7.484375 -5.015625 L 8.25 -4.765625 L 8.890625 -4.4375 L 10.59375 -4.3125 L 11.171875 -4.5 L 12.0625 -4.890625 L 12.8125 -5.078125 L 13.328125 -5.515625 L 13.953125 -5.96875 L 14.65625 -6.46875 L 15.234375 -6.984375 L 15.859375 -7.671875 L 16.5 -8.25 L 16.875 -8.75 L 17.453125 -9.390625 L 17.953125 -10.09375 L 18.46875 -10.78125 L 18.78125 -11.484375 L 19.296875 -12.3125 L 19.609375 -12.875 L 20.046875 -13.640625 L 20.5 -14.40625 L 20.9375 -15.109375 L 21.3125 -15.921875 L 21.578125 -16.5625 L 21.953125 -17.453125 L 22.140625 -18.21875 L 22.65625 -18.84375 L 23.03125 -19.609375 L 23.34375 -20.5 L 23.609375 -21.25 L 23.796875 -21.890625 L 24.109375 -22.78125 L 24.359375 -23.546875 L 24.625 -24.359375 L 25 -25 L 25.0625 -25.890625 L 25.3125 -26.71875 L 25.578125 -27.40625 L 26.71875 -28.296875 L 27.609375 -28.171875 L 29.25 -28.171875 L 29.765625 -27.34375 L 29.625 -26.65625 L 29.25 -25.953125 L 28.9375 -25.0625 L 28.6875 -24.296875 L 28.546875 -23.609375 L 28.046875 -21.953125 L 27.859375 -21.1875 L 27.46875 -20.5 L 27.34375 -19.546875 L 27.09375 -18.84375 L 26.90625 -18.015625 L 26.59375 -17.328125 L 26.265625 -16.5625 L 26.015625 -15.671875 L 25.890625 -15.03125 L 25.515625 -14.21875 L 25.3125 -13.328125 L 25 -12.6875 L 24.75 -11.859375 L 24.6875 -11.046875 L 24.296875 -10.28125 L 24.171875 -9.578125 L 23.921875 -8.625 L 23.609375 -8 L 23.34375 -7.171875 L 22.96875 -5.640625 L 22.59375 -4.828125 L 22.078125 -3.234375 L 22.078125 -2.40625 L 21.765625 -1.71875 L 21.3125 -0.0625 L 21.765625 0.375 L 22.53125 0.0625 L 23.09375 -0.375 L 23.984375 -0.828125 L 24.5625 -1.140625 L 25.1875 -1.78125 L 25.890625 -2.28125 L 26.453125 -2.796875 L 27.28125 -3.296875 L 27.671875 -3.875 L 28.296875 -4.5625 L 28.8125 -5.140625 L 29.4375 -5.84375 L 30.015625 -6.46875 L 30.453125 -7.109375 L 30.96875 -7.734375 L 31.40625 -8.5 L 31.984375 -9.140625 L 32.546875 -9.90625 L 32.9375 -10.46875 L 33.375 -11.234375 L 33.75 -12 L 34.265625 -12.625 L 34.515625 -13.453125 L 34.90625 -14.21875 L 35.984375 -14.46875 L 36.9375 -13.953125 Z M 7.8125 14.96875 L 8.375 14.78125 L 9.265625 14.40625 L 9.90625 14.015625 L 10.40625 13.515625 L 10.984375 12.875 L 11.546875 12.25 L 12.125 11.734375 L 12.4375 11.046875 L 13.015625 10.34375 L 13.265625 9.515625 L 13.640625 8.75 L 14.21875 8.125 L 14.53125 7.296875 L 14.71875 6.59375 L 14.96875 5.78125 L 14.53125 5.140625 L 13.703125 5.265625 L 13.140625 5.453125 L 12.125 5.640625 L 11.359375 5.90625 L 10.53125 6.21875 L 9.96875 6.40625 L 9.015625 6.796875 L 8.25 6.921875 L 7.484375 7.421875 L 6.984375 7.671875 L 6.15625 8.125 L 5.578125 8.6875 L 4.890625 9.265625 L 4.3125 9.765625 L 3.9375 10.46875 L 3.8125 11.234375 L 3.8125 12.8125 L 4.125 13.640625 L 4.625 14.28125 L 5.453125 14.78125 L 6.21875 14.96875 Z M 7.8125 14.96875 "/></g></g></g></svg>